<svg xmlns="http://www.w3.org/2000/svg" width="560" height="560" viewBox="0 0 560 560">
  <g stroke="#F0EDE8" stroke-width="1" opacity="0.22">
    <line x1="251" y1="336" x2="393" y2="336"></line>
    <line x1="97" y1="375" x2="200" y2="375"></line>
    <line x1="349" y1="153" x2="492" y2="153"></line>
    <line x1="139" y1="264" x2="284" y2="264"></line>
    <line x1="171" y1="417" x2="234" y2="417"></line>
    <line x1="384" y1="280" x2="497" y2="280"></line>
    <line x1="263" y1="2" x2="403" y2="2"></line>
    <line x1="331" y1="28" x2="374" y2="28"></line>
    <line x1="34" y1="149" x2="96" y2="149"></line>
    <line x1="296" y1="438" x2="339" y2="438"></line>
    <line x1="471" y1="96" x2="560" y2="96"></line>
    <line x1="178" y1="453" x2="271" y2="453"></line>
    <line x1="28" y1="20" x2="134" y2="20"></line>
    <line x1="137" y1="334" x2="254" y2="334"></line>
    <line x1="170" y1="117" x2="298" y2="117"></line>
    <line x1="284" y1="480" x2="348" y2="480"></line>
    <line x1="164" y1="159" x2="212" y2="159"></line>
    <line x1="381" y1="369" x2="504" y2="369"></line>
    <line x1="49" y1="519" x2="202" y2="519"></line>
    <line x1="527" y1="241" x2="560" y2="241"></line>
    <line x1="8" y1="62" x2="91" y2="62"></line>
    <line x1="342" y1="269" x2="489" y2="269"></line>
    <line x1="402" y1="43" x2="554" y2="43"></line>
    <line x1="395" y1="155" x2="456" y2="155"></line>
    <line x1="460" y1="291" x2="514" y2="291"></line>
    <line x1="315" y1="557" x2="464" y2="557"></line>
    <line x1="323" y1="243" x2="403" y2="243"></line>
    <line x1="180" y1="333" x2="307" y2="333"></line>
    <line x1="251" y1="165" x2="392" y2="165"></line>
    <line x1="556" y1="389" x2="560" y2="389"></line>
    <line x1="305" y1="241" x2="380" y2="241"></line>
    <line x1="390" y1="56" x2="467" y2="56"></line>
    <line x1="506" y1="440" x2="557" y2="440"></line>
    <line x1="460" y1="266" x2="515" y2="266"></line>
    <line x1="99" y1="544" x2="224" y2="544"></line>
    <line x1="124" y1="391" x2="213" y2="391"></line>
    <line x1="366" y1="91" x2="446" y2="91"></line>
    <line x1="352" y1="115" x2="498" y2="115"></line>
    <line x1="443" y1="182" x2="530" y2="182"></line>
    <line x1="483" y1="73" x2="560" y2="73"></line>
    <line x1="412" y1="5" x2="528" y2="5"></line>
    <line x1="508" y1="490" x2="560" y2="490"></line>
    <line x1="273" y1="338" x2="335" y2="338"></line>
    <line x1="395" y1="26" x2="520" y2="26"></line>
    <line x1="154" y1="163" x2="234" y2="163"></line>
    <line x1="123" y1="16" x2="282" y2="16"></line>
    <line x1="553" y1="320" x2="560" y2="320"></line>
    <line x1="314" y1="95" x2="389" y2="95"></line>
    <line x1="243" y1="221" x2="333" y2="221"></line>
    <line x1="223" y1="384" x2="303" y2="384"></line>
    <line x1="183" y1="501" x2="282" y2="501"></line>
    <line x1="305" y1="342" x2="415" y2="342"></line>
    <line x1="182" y1="131" x2="257" y2="131"></line>
    <line x1="374" y1="179" x2="440" y2="179"></line>
    <line x1="389" y1="94" x2="466" y2="94"></line>
    <line x1="175" y1="69" x2="220" y2="69"></line>
    <line x1="116" y1="323" x2="213" y2="323"></line>
    <line x1="398" y1="212" x2="547" y2="212"></line>
    <line x1="246" y1="454" x2="304" y2="454"></line>
    <line x1="294" y1="485" x2="434" y2="485"></line>
    <line x1="252" y1="500" x2="309" y2="500"></line>
    <line x1="452" y1="346" x2="517" y2="346"></line>
    <line x1="305" y1="218" x2="463" y2="218"></line>
    <line x1="481" y1="275" x2="560" y2="275"></line>
    <line x1="29" y1="416" x2="77" y2="416"></line>
    <line x1="283" y1="94" x2="404" y2="94"></line>
    <line x1="555" y1="426" x2="560" y2="426"></line>
    <line x1="468" y1="353" x2="560" y2="353"></line>
    <line x1="196" y1="335" x2="289" y2="335"></line>
    <line x1="381" y1="491" x2="462" y2="491"></line>
    <line x1="525" y1="350" x2="525" y2="429"></line>
    <line x1="473" y1="84" x2="473" y2="167"></line>
    <line x1="11" y1="47" x2="11" y2="164"></line>
    <line x1="406" y1="535" x2="406" y2="560"></line>
    <line x1="261" y1="396" x2="261" y2="453"></line>
    <line x1="152" y1="77" x2="152" y2="122"></line>
    <line x1="162" y1="246" x2="162" y2="354"></line>
    <line x1="401" y1="444" x2="401" y2="560"></line>
    <line x1="109" y1="373" x2="109" y2="475"></line>
    <line x1="248" y1="262" x2="248" y2="357"></line>
    <line x1="238" y1="185" x2="238" y2="261"></line>
    <line x1="82" y1="282" x2="82" y2="354"></line>
    <line x1="297" y1="306" x2="297" y2="423"></line>
    <line x1="244" y1="75" x2="244" y2="115"></line>
    <line x1="82" y1="528" x2="82" y2="560"></line>
    <line x1="487" y1="241" x2="487" y2="341"></line>
    <line x1="55" y1="460" x2="55" y2="506"></line>
    <line x1="207" y1="128" x2="207" y2="252"></line>
    <line x1="315" y1="52" x2="315" y2="207"></line>
    <line x1="420" y1="370" x2="420" y2="505"></line>
    <line x1="307" y1="450" x2="307" y2="553"></line>
    <line x1="99" y1="43" x2="99" y2="94"></line>
    <line x1="33" y1="147" x2="33" y2="267"></line>
    <line x1="374" y1="314" x2="374" y2="471"></line>
    <line x1="12" y1="222" x2="12" y2="302"></line>
    <line x1="159" y1="466" x2="159" y2="560"></line>
    <line x1="114" y1="528" x2="114" y2="560"></line>
    <line x1="149" y1="290" x2="149" y2="433"></line>
    <line x1="523" y1="383" x2="523" y2="491"></line>
    <line x1="453" y1="174" x2="453" y2="273"></line>
    <line x1="420" y1="307" x2="420" y2="429"></line>
    <line x1="310" y1="305" x2="310" y2="461"></line>
    <line x1="551" y1="429" x2="551" y2="506"></line>
    <line x1="353" y1="374" x2="353" y2="517"></line>
    <line x1="216" y1="491" x2="216" y2="560"></line>
    <line x1="492" y1="231" x2="492" y2="311"></line>
    <line x1="298" y1="468" x2="298" y2="560"></line>
    <line x1="485" y1="387" x2="485" y2="445"></line>
    <line x1="160" y1="538" x2="160" y2="560"></line>
    <line x1="153" y1="353" x2="153" y2="485"></line>
    <line x1="413" y1="400" x2="413" y2="462"></line>
    <line x1="474" y1="505" x2="474" y2="560"></line>
    <line x1="263" y1="40" x2="263" y2="139"></line>
    <line x1="500" y1="378" x2="500" y2="468"></line>
    <line x1="247" y1="344" x2="247" y2="470"></line>
    <line x1="290" y1="24" x2="290" y2="84"></line>
    <line x1="54" y1="67" x2="54" y2="152"></line>
    <line x1="463" y1="469" x2="463" y2="560"></line>
    <line x1="47" y1="18" x2="47" y2="90"></line>
    <line x1="392" y1="151" x2="392" y2="293"></line>
    <line x1="350" y1="509" x2="350" y2="560"></line>
    <line x1="193" y1="55" x2="193" y2="170"></line>
    <line x1="134" y1="268" x2="134" y2="341"></line>
    <line x1="145" y1="403" x2="145" y2="505"></line>
    <line x1="273" y1="331" x2="273" y2="384"></line>
    <line x1="437" y1="385" x2="437" y2="535"></line>
    <line x1="65" y1="32" x2="65" y2="75"></line>
    <line x1="190" y1="134" x2="190" y2="201"></line>
    <line x1="554" y1="325" x2="554" y2="465"></line>
    <line x1="191" y1="363" x2="191" y2="406"></line>
    <line x1="411" y1="447" x2="411" y2="532"></line>
    <line x1="114" y1="439" x2="114" y2="539"></line>
    <line x1="77" y1="46" x2="77" y2="178"></line>
    <line x1="241" y1="487" x2="241" y2="560"></line>
    <line x1="276" y1="532" x2="276" y2="560"></line>
    <line x1="81" y1="309" x2="81" y2="429"></line>
    <line x1="115" y1="431" x2="115" y2="499"></line>
    <line x1="75" y1="369" x2="75" y2="481"></line>
    <line x1="311" y1="114" x2="311" y2="264"></line>
    <line x1="292" y1="417" x2="292" y2="462"></line>
  </g>
  <line x1="536" y1="325" x2="536" y2="405" stroke="#C23D2E" stroke-width="1" opacity="0.35"></line>
</svg>