<svg xmlns="http://www.w3.org/2000/svg" width="480" height="480" viewBox="0 0 480 480">
  <g fill="#1C1917" stroke="#1C1917" stroke-width="0.9" stroke-linecap="round" opacity="0.18">
    <circle cx="3.16" cy="3.87" r="1.1"></circle>
    <circle cx="30.30" cy="8.68" r="1.1"></circle>
    <circle cx="50.75" cy="13.22" r="1.1"></circle>
    <circle cx="73.70" cy="10.26" r="1.1"></circle>
    <circle cx="87.11" cy="10.49" r="1.1"></circle>
    <circle cx="106.47" cy="15.29" r="1.1"></circle>
    <circle cx="125.17" cy="7.07" r="1.1"></circle>
    <circle cx="144.04" cy="15.78" r="1.1"></circle>
    <circle cx="172.52" cy="16.52" r="1.1"></circle>
    <circle cx="194.59" cy="3.56" r="1.1"></circle>
    <circle cx="208.95" cy="3.28" r="1.8"></circle>
    <circle cx="228.17" cy="8.97" r="1.1"></circle>
    <circle cx="252.85" cy="12.64" r="1.1"></circle>
    <circle cx="264.94" cy="4.87" r="1.1"></circle>
    <line x1="284.27" y1="11.85" x2="287.07" y2="11.85" transform="rotate(90 285.67 11.85)"></line>
    <circle cx="315.90" cy="10.67" r="1.1"></circle>
    <circle cx="335.88" cy="4.64" r="1.1"></circle>
    <circle cx="355.47" cy="16.45" r="1.1"></circle>
    <circle cx="376.49" cy="16.55" r="1.1"></circle>
    <circle cx="383.08" cy="10.23" r="1.1"></circle>
    <circle cx="410.69" cy="13.58" r="1.1"></circle>
    <circle cx="434.52" cy="9.02" r="1.1"></circle>
    <line x1="449.32" y1="7.37" x2="452.12" y2="7.37" transform="rotate(0 450.72 7.37)"></line>
    <line x1="474.81" y1="14.67" x2="477.61" y2="14.67" transform="rotate(90 476.21 14.67)"></line>
    <circle cx="11.33" cy="33.04" r="1.1"></circle>
    <circle cx="36.81" cy="32.10" r="1.1"></circle>
    <circle cx="54.62" cy="24.95" r="1.1"></circle>
    <circle cx="70.94" cy="25.25" r="1.1"></circle>
    <circle cx="94.39" cy="35.06" r="1.1"></circle>
    <circle cx="116.86" cy="31.53" r="1.1"></circle>
    <circle cx="129.85" cy="26.22" r="1.1"></circle>
    <circle cx="154.95" cy="25.66" r="1.1"></circle>
    <circle cx="170.36" cy="25.52" r="1.1"></circle>
    <circle cx="189.69" cy="25.39" r="1.8"></circle>
    <circle cx="203.34" cy="24.50" r="1.1"></circle>
    <circle cx="223.84" cy="25.44" r="1.1"></circle>
    <circle cx="253.25" cy="28.16" r="1.1"></circle>
    <circle cx="272.95" cy="34.20" r="1.1"></circle>
    <circle cx="288.77" cy="30.88" r="1.1"></circle>
    <circle cx="313.87" cy="24.12" r="1.1"></circle>
    <circle cx="334.58" cy="33.85" r="1.1"></circle>
    <circle cx="355.88" cy="26.52" r="1.1"></circle>
    <circle cx="374.62" cy="28.66" r="1.1"></circle>
    <circle cx="389.11" cy="27.74" r="1.1"></circle>
    <circle cx="415.38" cy="31.01" r="1.1"></circle>
    <circle cx="429.94" cy="29.12" r="1.1"></circle>
    <circle cx="450.71" cy="32.20" r="1.1"></circle>
    <circle cx="468.47" cy="31.54" r="1.1"></circle>
    <circle cx="7.14" cy="44.27" r="1.1"></circle>
    <line x1="35.10" y1="47.44" x2="37.90" y2="47.44" transform="rotate(90 36.50 47.44)"></line>
    <circle cx="55.97" cy="53.98" r="1.1"></circle>
    <circle cx="66.17" cy="56.70" r="1.1"></circle>
    <circle cx="88.48" cy="52.99" r="1.1"></circle>
    <circle cx="113.16" cy="51.70" r="1.1"></circle>
    <circle cx="134.65" cy="49.76" r="1.8"></circle>
    <circle cx="149.49" cy="50.83" r="1.1"></circle>
    <circle cx="176.34" cy="45.15" r="1.8"></circle>
    <circle cx="190.33" cy="48.50" r="1.1"></circle>
    <circle cx="210.42" cy="55.71" r="1.1"></circle>
    <circle cx="235.96" cy="52.46" r="1.1"></circle>
    <line x1="254.33" y1="56.57" x2="257.13" y2="56.57" transform="rotate(0 255.73 56.57)"></line>
    <circle cx="273.54" cy="44.46" r="1.8"></circle>
    <circle cx="286.80" cy="51.25" r="1.1"></circle>
    <circle cx="313.07" cy="43.80" r="1.1"></circle>
    <circle cx="324.15" cy="44.20" r="1.1"></circle>
    <circle cx="352.68" cy="46.81" r="1.1"></circle>
    <circle cx="369.76" cy="49.12" r="1.1"></circle>
    <circle cx="393.81" cy="47.24" r="1.1"></circle>
    <circle cx="403.52" cy="45.55" r="1.1"></circle>
    <circle cx="426.95" cy="54.76" r="1.1"></circle>
    <circle cx="444.33" cy="44.49" r="1.1"></circle>
    <circle cx="466.61" cy="50.25" r="1.8"></circle>
    <circle cx="8.97" cy="73.91" r="1.1"></circle>
    <circle cx="25.39" cy="66.34" r="1.1"></circle>
    <circle cx="43.43" cy="63.47" r="1.1"></circle>
    <circle cx="69.77" cy="71.06" r="1.1"></circle>
    <circle cx="90.25" cy="64.04" r="1.1"></circle>
    <circle cx="114.83" cy="63.98" r="1.1"></circle>
    <circle cx="123.78" cy="75.89" r="1.1"></circle>
    <circle cx="146.97" cy="67.87" r="1.1"></circle>
    <circle cx="175.12" cy="73.83" r="1.1"></circle>
    <circle cx="191.93" cy="72.83" r="1.1"></circle>
    <circle cx="208.65" cy="72.24" r="1.1"></circle>
    <circle cx="229.95" cy="71.37" r="1.1"></circle>
    <circle cx="252.96" cy="66.38" r="1.1"></circle>
    <circle cx="269.16" cy="68.48" r="1.1"></circle>
    <circle cx="290.75" cy="70.56" r="1.1"></circle>
    <circle cx="304.09" cy="68.86" r="1.1"></circle>
    <circle cx="330.17" cy="72.73" r="1.1"></circle>
    <circle cx="343.88" cy="73.68" r="1.1"></circle>
    <circle cx="369.89" cy="66.16" r="1.1"></circle>
    <circle cx="390.48" cy="76.23" r="1.1"></circle>
    <circle cx="405.44" cy="63.60" r="1.1"></circle>
    <circle cx="426.02" cy="63.09" r="1.1"></circle>
    <circle cx="447.37" cy="70.50" r="1.1"></circle>
    <circle cx="470.72" cy="72.73" r="1.1"></circle>
    <circle cx="11.88" cy="84.67" r="1.1"></circle>
    <circle cx="32.41" cy="94.46" r="1.1"></circle>
    <circle cx="53.88" cy="90.38" r="1.1"></circle>
    <circle cx="71.61" cy="91.39" r="1.1"></circle>
    <circle cx="93.11" cy="95.27" r="1.1"></circle>
    <circle cx="111.77" cy="85.10" r="1.1"></circle>
    <circle cx="125.85" cy="95.68" r="1.8"></circle>
    <circle cx="150.26" cy="94.55" r="1.1"></circle>
    <circle cx="167.58" cy="92.81" r="1.1"></circle>
    <circle cx="184.51" cy="87.36" r="1.1"></circle>
    <line x1="203.72" y1="86.54" x2="206.52" y2="86.54" transform="rotate(90 205.12 86.54)"></line>
    <circle cx="223.06" cy="96.67" r="1.1"></circle>
    <circle cx="251.53" cy="88.41" r="1.1"></circle>
    <circle cx="268.14" cy="92.26" r="1.1"></circle>
    <circle cx="293.34" cy="88.32" r="1.1"></circle>
    <circle cx="303.89" cy="88.58" r="1.1"></circle>
    <circle cx="325.28" cy="87.54" r="1.8"></circle>
    <circle cx="356.08" cy="95.43" r="1.1"></circle>
    <circle cx="375.08" cy="83.22" r="1.1"></circle>
    <circle cx="388.78" cy="89.46" r="1.1"></circle>
    <circle cx="408.17" cy="83.13" r="1.8"></circle>
    <circle cx="428.96" cy="87.22" r="1.8"></circle>
    <circle cx="453.81" cy="95.11" r="1.1"></circle>
    <circle cx="476.80" cy="96.46" r="1.1"></circle>
    <circle cx="14.43" cy="114.18" r="1.1"></circle>
    <circle cx="32.88" cy="107.49" r="1.1"></circle>
    <circle cx="47.77" cy="113.67" r="1.8"></circle>
    <circle cx="71.09" cy="106.36" r="1.1"></circle>
    <circle cx="95.67" cy="107.20" r="1.8"></circle>
    <circle cx="109.73" cy="103.61" r="1.8"></circle>
    <circle cx="125.56" cy="112.48" r="1.1"></circle>
    <circle cx="153.80" cy="113.93" r="1.1"></circle>
    <circle cx="175.75" cy="110.39" r="1.1"></circle>
    <circle cx="187.74" cy="115.74" r="1.1"></circle>
    <circle cx="208.59" cy="106.93" r="1.1"></circle>
    <circle cx="233.27" cy="107.83" r="1.1"></circle>
    <circle cx="251.87" cy="113.10" r="1.1"></circle>
    <circle cx="264.18" cy="114.07" r="1.1"></circle>
    <circle cx="288.68" cy="113.35" r="1.1"></circle>
    <circle cx="308.95" cy="116.21" r="1.1"></circle>
    <circle cx="332.21" cy="106.29" r="1.1"></circle>
    <circle cx="350.62" cy="108.71" r="1.1"></circle>
    <circle cx="374.74" cy="104.38" r="1.1"></circle>
    <circle cx="384.01" cy="114.43" r="1.1"></circle>
    <circle cx="407.84" cy="114.34" r="1.1"></circle>
    <circle cx="429.55" cy="111.51" r="1.8"></circle>
    <circle cx="443.89" cy="111.75" r="1.1"></circle>
    <line x1="472.85" y1="116.01" x2="475.65" y2="116.01" transform="rotate(0 474.25 116.01)"></line>
    <circle cx="11.24" cy="126.15" r="1.1"></circle>
    <circle cx="25.37" cy="124.46" r="1.1"></circle>
    <circle cx="56.26" cy="132.16" r="1.1"></circle>
    <circle cx="67.94" cy="124.21" r="1.1"></circle>
    <circle cx="91.68" cy="135.53" r="1.8"></circle>
    <circle cx="104.00" cy="129.85" r="1.1"></circle>
    <circle cx="124.15" cy="133.77" r="1.1"></circle>
    <line x1="153.94" y1="134.71" x2="156.74" y2="134.71" transform="rotate(0 155.34 134.71)"></line>
    <circle cx="174.33" cy="125.02" r="1.1"></circle>
    <circle cx="192.49" cy="128.75" r="1.1"></circle>
    <circle cx="212.77" cy="132.30" r="1.1"></circle>
    <circle cx="236.28" cy="134.58" r="1.1"></circle>
    <line x1="250.29" y1="134.67" x2="253.09" y2="134.67" transform="rotate(0 251.69 134.67)"></line>
    <circle cx="275.43" cy="134.58" r="1.1"></circle>
    <circle cx="289.37" cy="127.59" r="1.1"></circle>
    <circle cx="309.64" cy="125.72" r="1.8"></circle>
    <circle cx="330.44" cy="126.64" r="1.1"></circle>
    <circle cx="356.97" cy="124.06" r="1.1"></circle>
    <circle cx="372.92" cy="135.25" r="1.1"></circle>
    <circle cx="395.84" cy="134.62" r="1.1"></circle>
    <circle cx="408.70" cy="123.83" r="1.8"></circle>
    <circle cx="424.17" cy="126.02" r="1.1"></circle>
    <circle cx="456.08" cy="132.91" r="1.1"></circle>
    <circle cx="467.49" cy="126.54" r="1.1"></circle>
    <circle cx="16.36" cy="154.38" r="1.8"></circle>
    <circle cx="36.35" cy="154.16" r="1.8"></circle>
    <circle cx="46.11" cy="150.15" r="1.8"></circle>
    <circle cx="74.68" cy="144.90" r="1.8"></circle>
    <circle cx="95.42" cy="149.20" r="1.1"></circle>
    <circle cx="107.84" cy="143.06" r="1.8"></circle>
    <circle cx="136.36" cy="155.12" r="1.1"></circle>
    <line x1="151.54" y1="153.74" x2="154.34" y2="153.74" transform="rotate(90 152.94 153.74)"></line>
    <circle cx="165.28" cy="144.98" r="1.1"></circle>
    <circle cx="183.08" cy="146.50" r="1.1"></circle>
    <circle cx="213.99" cy="155.34" r="1.1"></circle>
    <circle cx="234.90" cy="149.44" r="1.1"></circle>
    <circle cx="244.21" cy="154.56" r="1.8"></circle>
    <line x1="264.54" y1="146.25" x2="267.34" y2="146.25" transform="rotate(90 265.94 146.25)"></line>
    <circle cx="287.83" cy="150.84" r="1.8"></circle>
    <circle cx="303.59" cy="153.30" r="1.1"></circle>
    <circle cx="332.31" cy="151.03" r="1.1"></circle>
    <circle cx="348.47" cy="145.45" r="1.1"></circle>
    <circle cx="373.77" cy="149.58" r="1.1"></circle>
    <circle cx="395.23" cy="147.41" r="1.1"></circle>
    <circle cx="412.28" cy="156.93" r="1.1"></circle>
    <circle cx="428.23" cy="143.02" r="1.1"></circle>
    <circle cx="454.46" cy="146.80" r="1.1"></circle>
    <circle cx="466.63" cy="148.01" r="1.1"></circle>
    <circle cx="15.95" cy="170.70" r="1.1"></circle>
    <circle cx="30.88" cy="164.25" r="1.1"></circle>
    <circle cx="47.88" cy="170.85" r="1.1"></circle>
    <circle cx="73.22" cy="163.45" r="1.1"></circle>
    <circle cx="88.27" cy="171.17" r="1.1"></circle>
    <circle cx="112.40" cy="169.29" r="1.1"></circle>
    <circle cx="129.19" cy="164.62" r="1.1"></circle>
    <circle cx="152.90" cy="167.70" r="1.8"></circle>
    <circle cx="176.19" cy="165.03" r="1.1"></circle>
    <circle cx="193.51" cy="165.36" r="1.1"></circle>
    <circle cx="216.91" cy="169.54" r="1.1"></circle>
    <circle cx="229.92" cy="171.97" r="1.1"></circle>
    <circle cx="244.82" cy="164.81" r="1.1"></circle>
    <circle cx="264.03" cy="168.44" r="1.8"></circle>
    <line x1="294.83" y1="171.53" x2="297.63" y2="171.53" transform="rotate(90 296.23 171.53)"></line>
    <line x1="305.61" y1="175.41" x2="308.41" y2="175.41" transform="rotate(0 307.01 175.41)"></line>
    <circle cx="336.88" cy="173.62" r="1.1"></circle>
    <circle cx="349.00" cy="175.94" r="1.1"></circle>
    <circle cx="371.35" cy="173.36" r="1.1"></circle>
    <circle cx="396.26" cy="175.22" r="1.1"></circle>
    <circle cx="412.63" cy="175.77" r="1.1"></circle>
    <circle cx="429.03" cy="169.80" r="1.1"></circle>
    <circle cx="450.22" cy="176.01" r="1.1"></circle>
    <circle cx="464.03" cy="168.17" r="1.1"></circle>
    <circle cx="16.67" cy="193.82" r="1.1"></circle>
    <circle cx="29.33" cy="193.88" r="1.1"></circle>
    <circle cx="45.24" cy="186.88" r="1.1"></circle>
    <circle cx="73.73" cy="196.35" r="1.1"></circle>
    <circle cx="89.16" cy="191.60" r="1.8"></circle>
    <circle cx="111.73" cy="185.39" r="1.1"></circle>
    <circle cx="124.20" cy="190.67" r="1.1"></circle>
    <circle cx="145.48" cy="191.46" r="1.1"></circle>
    <circle cx="168.87" cy="193.02" r="1.8"></circle>
    <circle cx="186.76" cy="192.71" r="1.1"></circle>
    <circle cx="210.19" cy="185.56" r="1.1"></circle>
    <circle cx="227.38" cy="196.40" r="1.1"></circle>
    <circle cx="250.71" cy="195.50" r="1.1"></circle>
    <circle cx="273.67" cy="184.44" r="1.1"></circle>
    <circle cx="294.13" cy="185.95" r="1.8"></circle>
    <circle cx="306.89" cy="185.38" r="1.1"></circle>
    <circle cx="334.96" cy="187.36" r="1.1"></circle>
    <circle cx="352.59" cy="193.26" r="1.1"></circle>
    <circle cx="374.54" cy="195.43" r="1.1"></circle>
    <circle cx="392.19" cy="183.79" r="1.1"></circle>
    <circle cx="407.68" cy="191.07" r="1.1"></circle>
    <circle cx="426.68" cy="185.60" r="1.1"></circle>
    <circle cx="452.62" cy="190.35" r="1.1"></circle>
    <circle cx="473.46" cy="194.31" r="1.1"></circle>
    <circle cx="7.69" cy="210.39" r="1.1"></circle>
    <circle cx="30.83" cy="216.53" r="1.1"></circle>
    <circle cx="56.08" cy="211.46" r="1.1"></circle>
    <circle cx="64.46" cy="203.29" r="1.1"></circle>
    <circle cx="87.09" cy="216.73" r="1.8"></circle>
    <circle cx="115.80" cy="216.35" r="1.8"></circle>
    <circle cx="129.09" cy="213.52" r="1.1"></circle>
    <circle cx="149.78" cy="210.35" r="1.1"></circle>
    <circle cx="173.42" cy="213.35" r="1.1"></circle>
    <circle cx="187.27" cy="216.73" r="1.1"></circle>
    <circle cx="214.93" cy="216.75" r="1.1"></circle>
    <circle cx="224.09" cy="210.10" r="1.1"></circle>
    <circle cx="251.94" cy="208.71" r="1.1"></circle>
    <circle cx="272.36" cy="215.99" r="1.8"></circle>
    <line x1="285.84" y1="203.71" x2="288.64" y2="203.71" transform="rotate(90 287.24 203.71)"></line>
    <circle cx="305.54" cy="211.68" r="1.8"></circle>
    <circle cx="328.61" cy="205.80" r="1.1"></circle>
    <circle cx="346.35" cy="205.78" r="1.8"></circle>
    <circle cx="373.83" cy="215.13" r="1.1"></circle>
    <circle cx="395.27" cy="213.20" r="1.1"></circle>
    <circle cx="403.18" cy="204.26" r="1.1"></circle>
    <circle cx="425.91" cy="207.08" r="1.1"></circle>
    <circle cx="453.72" cy="205.72" r="1.1"></circle>
    <circle cx="473.21" cy="210.82" r="1.1"></circle>
    <circle cx="9.03" cy="229.17" r="1.1"></circle>
    <line x1="30.61" y1="233.45" x2="33.41" y2="233.45" transform="rotate(90 32.01 233.45)"></line>
    <circle cx="53.55" cy="227.25" r="1.1"></circle>
    <circle cx="67.47" cy="227.01" r="1.1"></circle>
    <circle cx="95.82" cy="235.46" r="1.1"></circle>
    <circle cx="111.63" cy="229.31" r="1.1"></circle>
    <circle cx="134.69" cy="231.15" r="1.1"></circle>
    <circle cx="150.32" cy="231.58" r="1.8"></circle>
    <circle cx="174.19" cy="236.47" r="1.1"></circle>
    <circle cx="191.21" cy="225.27" r="1.1"></circle>
    <circle cx="209.82" cy="233.47" r="1.1"></circle>
    <circle cx="227.69" cy="226.32" r="1.1"></circle>
    <circle cx="252.34" cy="232.34" r="1.1"></circle>
    <line x1="261.82" y1="226.41" x2="264.62" y2="226.41" transform="rotate(0 263.22 226.41)"></line>
    <circle cx="290.81" cy="225.92" r="1.8"></circle>
    <circle cx="310.94" cy="230.51" r="1.1"></circle>
    <circle cx="325.55" cy="234.15" r="1.1"></circle>
    <circle cx="343.36" cy="228.62" r="1.1"></circle>
    <circle cx="375.29" cy="236.01" r="1.1"></circle>
    <circle cx="388.58" cy="234.08" r="1.1"></circle>
    <circle cx="411.44" cy="223.82" r="1.1"></circle>
    <circle cx="431.76" cy="226.02" r="1.8"></circle>
    <circle cx="449.67" cy="224.97" r="1.1"></circle>
    <circle cx="466.87" cy="223.87" r="1.8"></circle>
    <circle cx="4.74" cy="253.08" r="1.1"></circle>
    <line x1="23.61" y1="244.71" x2="26.41" y2="244.71" transform="rotate(90 25.01 244.71)"></line>
    <circle cx="49.23" cy="249.19" r="1.1"></circle>
    <circle cx="68.48" cy="249.78" r="1.1"></circle>
    <circle cx="88.88" cy="253.10" r="1.1"></circle>
    <circle cx="103.52" cy="246.61" r="1.1"></circle>
    <circle cx="129.40" cy="253.03" r="1.1"></circle>
    <circle cx="151.05" cy="253.07" r="1.1"></circle>
    <circle cx="164.99" cy="250.50" r="1.1"></circle>
    <circle cx="185.33" cy="252.09" r="1.1"></circle>
    <line x1="210.43" y1="249.28" x2="213.23" y2="249.28" transform="rotate(0 211.83 249.28)"></line>
    <circle cx="228.04" cy="245.64" r="1.1"></circle>
    <circle cx="243.21" cy="256.27" r="1.1"></circle>
    <circle cx="273.32" cy="253.45" r="1.8"></circle>
    <circle cx="290.66" cy="247.34" r="1.1"></circle>
    <circle cx="303.64" cy="249.04" r="1.1"></circle>
    <circle cx="333.35" cy="244.70" r="1.1"></circle>
    <circle cx="343.14" cy="244.76" r="1.1"></circle>
    <circle cx="367.09" cy="254.01" r="1.1"></circle>
    <circle cx="395.08" cy="245.39" r="1.1"></circle>
    <circle cx="406.03" cy="253.47" r="1.1"></circle>
    <circle cx="435.68" cy="255.70" r="1.1"></circle>
    <circle cx="451.79" cy="247.47" r="1.1"></circle>
    <circle cx="464.58" cy="251.10" r="1.1"></circle>
    <circle cx="10.86" cy="267.17" r="1.8"></circle>
    <circle cx="34.62" cy="268.74" r="1.1"></circle>
    <circle cx="49.90" cy="264.31" r="1.1"></circle>
    <circle cx="74.69" cy="276.37" r="1.1"></circle>
    <circle cx="90.91" cy="272.95" r="1.1"></circle>
    <circle cx="103.74" cy="272.58" r="1.1"></circle>
    <line x1="135.48" y1="265.87" x2="138.28" y2="265.87" transform="rotate(0 136.88 265.87)"></line>
    <circle cx="152.97" cy="267.65" r="1.1"></circle>
    <circle cx="173.55" cy="274.52" r="1.8"></circle>
    <circle cx="193.45" cy="269.45" r="1.1"></circle>
    <circle cx="215.95" cy="274.77" r="1.8"></circle>
    <circle cx="233.61" cy="263.08" r="1.1"></circle>
    <circle cx="249.08" cy="263.39" r="1.1"></circle>
    <circle cx="266.05" cy="270.35" r="1.1"></circle>
    <circle cx="291.39" cy="267.40" r="1.1"></circle>
    <circle cx="315.38" cy="266.66" r="1.1"></circle>
    <circle cx="325.29" cy="271.48" r="1.8"></circle>
    <circle cx="348.34" cy="263.01" r="1.1"></circle>
    <circle cx="371.42" cy="275.36" r="1.1"></circle>
    <circle cx="387.60" cy="273.03" r="1.1"></circle>
    <circle cx="416.13" cy="270.57" r="1.1"></circle>
    <circle cx="428.84" cy="270.49" r="1.1"></circle>
    <circle cx="447.98" cy="270.55" r="1.1"></circle>
    <circle cx="466.60" cy="263.50" r="1.1"></circle>
    <circle cx="4.31" cy="291.20" r="1.1"></circle>
    <circle cx="27.57" cy="293.50" r="1.8"></circle>
    <circle cx="44.11" cy="286.18" r="1.8"></circle>
    <circle cx="63.74" cy="292.17" r="1.8"></circle>
    <circle cx="85.22" cy="287.98" r="1.1"></circle>
    <circle cx="116.83" cy="286.61" r="1.8"></circle>
    <circle cx="124.14" cy="284.69" r="1.1"></circle>
    <circle cx="145.69" cy="291.14" r="1.1"></circle>
    <circle cx="172.04" cy="291.40" r="1.1"></circle>
    <circle cx="193.72" cy="285.14" r="1.8"></circle>
    <line x1="211.67" y1="291.65" x2="214.47" y2="291.65" transform="rotate(90 213.07 291.65)"></line>
    <circle cx="223.69" cy="285.75" r="1.1"></circle>
    <circle cx="247.15" cy="290.55" r="1.1"></circle>
    <circle cx="271.37" cy="292.33" r="1.1"></circle>
    <circle cx="288.92" cy="291.00" r="1.1"></circle>
    <circle cx="303.02" cy="290.48" r="1.1"></circle>
    <circle cx="330.85" cy="291.75" r="1.1"></circle>
    <circle cx="352.54" cy="288.57" r="1.1"></circle>
    <circle cx="375.52" cy="284.88" r="1.1"></circle>
    <circle cx="383.63" cy="292.01" r="1.1"></circle>
    <circle cx="405.99" cy="294.87" r="1.1"></circle>
    <circle cx="427.31" cy="291.47" r="1.8"></circle>
    <circle cx="455.28" cy="285.31" r="1.1"></circle>
    <circle cx="473.13" cy="292.63" r="1.1"></circle>
    <circle cx="8.50" cy="313.40" r="1.1"></circle>
    <circle cx="31.47" cy="316.46" r="1.1"></circle>
    <circle cx="53.33" cy="310.37" r="1.1"></circle>
    <circle cx="72.26" cy="310.21" r="1.1"></circle>
    <circle cx="84.88" cy="309.95" r="1.1"></circle>
    <circle cx="112.01" cy="306.03" r="1.1"></circle>
    <circle cx="134.78" cy="312.00" r="1.1"></circle>
    <circle cx="145.30" cy="314.23" r="1.1"></circle>
    <circle cx="167.99" cy="304.57" r="1.8"></circle>
    <circle cx="189.04" cy="305.50" r="1.1"></circle>
    <circle cx="207.87" cy="304.77" r="1.1"></circle>
    <circle cx="225.44" cy="309.69" r="1.1"></circle>
    <circle cx="253.05" cy="306.69" r="1.1"></circle>
    <line x1="267.38" y1="306.39" x2="270.18" y2="306.39" transform="rotate(90 268.78 306.39)"></line>
    <line x1="283.75" y1="310.92" x2="286.55" y2="310.92" transform="rotate(0 285.15 310.92)"></line>
    <circle cx="310.71" cy="308.91" r="1.1"></circle>
    <circle cx="327.14" cy="313.07" r="1.1"></circle>
    <circle cx="355.68" cy="312.06" r="1.1"></circle>
    <circle cx="375.11" cy="306.79" r="1.1"></circle>
    <circle cx="386.70" cy="307.32" r="1.1"></circle>
    <circle cx="412.07" cy="307.86" r="1.1"></circle>
    <circle cx="429.72" cy="316.42" r="1.1"></circle>
    <circle cx="455.61" cy="303.29" r="1.1"></circle>
    <circle cx="470.51" cy="315.20" r="1.1"></circle>
    <circle cx="8.84" cy="336.97" r="1.1"></circle>
    <line x1="24.41" y1="332.33" x2="27.21" y2="332.33" transform="rotate(90 25.81 332.33)"></line>
    <circle cx="48.75" cy="324.24" r="1.8"></circle>
    <circle cx="69.18" cy="335.07" r="1.8"></circle>
    <circle cx="88.06" cy="323.56" r="1.1"></circle>
    <circle cx="107.80" cy="323.60" r="1.1"></circle>
    <circle cx="131.10" cy="336.82" r="1.8"></circle>
    <line x1="148.91" y1="325.60" x2="151.71" y2="325.60" transform="rotate(90 150.31 325.60)"></line>
    <circle cx="164.56" cy="336.72" r="1.1"></circle>
    <circle cx="183.51" cy="331.59" r="1.1"></circle>
    <circle cx="208.36" cy="323.64" r="1.1"></circle>
    <circle cx="228.48" cy="330.87" r="1.1"></circle>
    <circle cx="252.75" cy="326.25" r="1.8"></circle>
    <circle cx="267.30" cy="332.75" r="1.1"></circle>
    <circle cx="283.97" cy="330.74" r="1.1"></circle>
    <circle cx="311.47" cy="333.25" r="1.1"></circle>
    <line x1="322.10" y1="329.78" x2="324.90" y2="329.78" transform="rotate(90 323.50 329.78)"></line>
    <circle cx="354.63" cy="329.64" r="1.8"></circle>
    <circle cx="375.76" cy="327.00" r="1.1"></circle>
    <circle cx="387.35" cy="330.65" r="1.1"></circle>
    <circle cx="411.41" cy="328.58" r="1.1"></circle>
    <circle cx="424.81" cy="326.33" r="1.1"></circle>
    <circle cx="443.10" cy="324.02" r="1.1"></circle>
    <circle cx="468.17" cy="330.93" r="1.1"></circle>
    <circle cx="13.53" cy="351.50" r="1.1"></circle>
    <circle cx="29.72" cy="348.47" r="1.8"></circle>
    <circle cx="48.89" cy="351.65" r="1.1"></circle>
    <circle cx="63.46" cy="356.68" r="1.1"></circle>
    <circle cx="94.23" cy="356.28" r="1.1"></circle>
    <circle cx="116.84" cy="345.40" r="1.1"></circle>
    <circle cx="136.92" cy="349.01" r="1.8"></circle>
    <circle cx="149.89" cy="353.90" r="1.1"></circle>
    <circle cx="175.51" cy="343.06" r="1.1"></circle>
    <circle cx="183.11" cy="353.93" r="1.1"></circle>
    <circle cx="215.22" cy="345.42" r="1.1"></circle>
    <circle cx="232.47" cy="354.80" r="1.1"></circle>
    <circle cx="251.31" cy="356.77" r="1.1"></circle>
    <line x1="271.35" y1="349.08" x2="274.15" y2="349.08" transform="rotate(0 272.75 349.08)"></line>
    <circle cx="283.88" cy="353.45" r="1.1"></circle>
    <circle cx="305.86" cy="345.19" r="1.1"></circle>
    <circle cx="335.99" cy="343.91" r="1.1"></circle>
    <circle cx="349.44" cy="343.38" r="1.1"></circle>
    <circle cx="371.65" cy="353.19" r="1.1"></circle>
    <circle cx="391.72" cy="346.14" r="1.1"></circle>
    <circle cx="405.86" cy="355.24" r="1.1"></circle>
    <circle cx="430.82" cy="352.47" r="1.1"></circle>
    <circle cx="449.53" cy="349.98" r="1.8"></circle>
    <circle cx="469.70" cy="349.52" r="1.1"></circle>
    <circle cx="11.14" cy="363.32" r="1.8"></circle>
    <circle cx="25.45" cy="375.83" r="1.1"></circle>
    <circle cx="45.91" cy="375.98" r="1.1"></circle>
    <circle cx="66.84" cy="366.44" r="1.1"></circle>
    <line x1="85.99" y1="374.90" x2="88.79" y2="374.90" transform="rotate(90 87.39 374.90)"></line>
    <circle cx="103.51" cy="366.28" r="1.1"></circle>
    <circle cx="129.93" cy="363.99" r="1.8"></circle>
    <circle cx="146.54" cy="372.32" r="1.8"></circle>
    <circle cx="169.36" cy="367.06" r="1.1"></circle>
    <circle cx="193.32" cy="366.62" r="1.1"></circle>
    <circle cx="212.02" cy="369.98" r="1.8"></circle>
    <circle cx="233.45" cy="368.62" r="1.1"></circle>
    <circle cx="248.72" cy="373.49" r="1.8"></circle>
    <circle cx="273.80" cy="364.90" r="1.1"></circle>
    <circle cx="294.50" cy="365.21" r="1.1"></circle>
    <circle cx="304.68" cy="376.47" r="1.8"></circle>
    <circle cx="323.89" cy="370.15" r="1.8"></circle>
    <circle cx="349.27" cy="363.79" r="1.1"></circle>
    <circle cx="373.46" cy="364.58" r="1.8"></circle>
    <circle cx="396.54" cy="371.79" r="1.8"></circle>
    <circle cx="412.35" cy="363.16" r="1.1"></circle>
    <circle cx="428.28" cy="369.00" r="1.1"></circle>
    <circle cx="452.67" cy="371.12" r="1.1"></circle>
    <circle cx="473.15" cy="372.12" r="1.1"></circle>
    <line x1="3.42" y1="383.85" x2="6.22" y2="383.85" transform="rotate(90 4.82 383.85)"></line>
    <circle cx="34.90" cy="383.71" r="1.1"></circle>
    <circle cx="54.67" cy="386.17" r="1.8"></circle>
    <circle cx="73.23" cy="390.96" r="1.1"></circle>
    <circle cx="84.09" cy="388.87" r="1.1"></circle>
    <circle cx="107.92" cy="395.75" r="1.1"></circle>
    <circle cx="124.22" cy="391.39" r="1.1"></circle>
    <circle cx="147.61" cy="393.15" r="1.1"></circle>
    <circle cx="163.81" cy="385.14" r="1.1"></circle>
    <circle cx="195.23" cy="386.94" r="1.1"></circle>
    <circle cx="213.76" cy="396.26" r="1.1"></circle>
    <circle cx="224.73" cy="395.08" r="1.8"></circle>
    <circle cx="247.27" cy="391.58" r="1.1"></circle>
    <circle cx="275.89" cy="395.98" r="1.1"></circle>
    <circle cx="291.04" cy="384.03" r="1.1"></circle>
    <circle cx="310.88" cy="385.82" r="1.1"></circle>
    <circle cx="325.00" cy="393.79" r="1.1"></circle>
    <circle cx="343.99" cy="391.71" r="1.1"></circle>
    <circle cx="364.87" cy="384.98" r="1.1"></circle>
    <circle cx="384.64" cy="395.07" r="1.1"></circle>
    <circle cx="406.96" cy="386.80" r="1.1"></circle>
    <circle cx="431.54" cy="390.96" r="1.1"></circle>
    <circle cx="449.62" cy="389.97" r="1.1"></circle>
    <line x1="466.03" y1="385.78" x2="468.83" y2="385.78" transform="rotate(0 467.43 385.78)"></line>
    <circle cx="10.51" cy="415.41" r="1.1"></circle>
    <circle cx="36.48" cy="415.19" r="1.1"></circle>
    <circle cx="56.15" cy="406.32" r="1.1"></circle>
    <circle cx="74.53" cy="406.81" r="1.1"></circle>
    <circle cx="95.38" cy="414.78" r="1.1"></circle>
    <circle cx="113.39" cy="414.66" r="1.8"></circle>
    <circle cx="123.69" cy="406.57" r="1.1"></circle>
    <circle cx="146.30" cy="414.68" r="1.1"></circle>
    <circle cx="172.99" cy="408.02" r="1.1"></circle>
    <circle cx="191.75" cy="409.34" r="1.1"></circle>
    <circle cx="214.82" cy="415.54" r="1.1"></circle>
    <circle cx="232.71" cy="403.19" r="1.1"></circle>
    <circle cx="254.56" cy="411.84" r="1.1"></circle>
    <circle cx="265.56" cy="415.79" r="1.1"></circle>
    <circle cx="293.04" cy="416.62" r="1.1"></circle>
    <circle cx="313.57" cy="414.15" r="1.1"></circle>
    <circle cx="334.32" cy="406.87" r="1.1"></circle>
    <circle cx="354.76" cy="403.08" r="1.1"></circle>
    <circle cx="368.64" cy="407.40" r="1.1"></circle>
    <line x1="390.70" y1="412.59" x2="393.50" y2="412.59" transform="rotate(0 392.10 412.59)"></line>
    <circle cx="416.72" cy="410.62" r="1.1"></circle>
    <circle cx="431.51" cy="412.24" r="1.1"></circle>
    <circle cx="446.39" cy="412.00" r="1.1"></circle>
    <circle cx="464.40" cy="411.56" r="1.1"></circle>
    <circle cx="11.55" cy="434.98" r="1.1"></circle>
    <circle cx="25.40" cy="431.67" r="1.1"></circle>
    <circle cx="50.55" cy="428.38" r="1.1"></circle>
    <circle cx="66.26" cy="433.31" r="1.8"></circle>
    <line x1="93.36" y1="431.10" x2="96.16" y2="431.10" transform="rotate(0 94.76 431.10)"></line>
    <circle cx="110.06" cy="424.97" r="1.1"></circle>
    <circle cx="127.87" cy="434.52" r="1.1"></circle>
    <line x1="145.97" y1="427.41" x2="148.77" y2="427.41" transform="rotate(0 147.37 427.41)"></line>
    <circle cx="175.83" cy="427.80" r="1.8"></circle>
    <line x1="186.21" y1="431.01" x2="189.01" y2="431.01" transform="rotate(0 187.61 431.01)"></line>
    <circle cx="211.23" cy="436.67" r="1.1"></circle>
    <circle cx="236.30" cy="435.85" r="1.1"></circle>
    <line x1="250.40" y1="430.19" x2="253.20" y2="430.19" transform="rotate(90 251.80 430.19)"></line>
    <circle cx="269.81" cy="432.31" r="1.1"></circle>
    <circle cx="287.01" cy="429.73" r="1.1"></circle>
    <circle cx="314.48" cy="428.88" r="1.1"></circle>
    <circle cx="328.36" cy="428.88" r="1.1"></circle>
    <circle cx="350.74" cy="423.50" r="1.1"></circle>
    <circle cx="373.01" cy="434.50" r="1.1"></circle>
    <circle cx="390.91" cy="423.82" r="1.1"></circle>
    <circle cx="414.92" cy="426.07" r="1.1"></circle>
    <circle cx="424.20" cy="436.61" r="1.1"></circle>
    <circle cx="456.44" cy="433.60" r="1.1"></circle>
    <circle cx="464.50" cy="425.68" r="1.1"></circle>
    <circle cx="14.53" cy="456.26" r="1.1"></circle>
    <circle cx="33.61" cy="451.95" r="1.8"></circle>
    <circle cx="54.40" cy="443.04" r="1.8"></circle>
    <circle cx="76.95" cy="455.72" r="1.1"></circle>
    <line x1="92.90" y1="456.06" x2="95.70" y2="456.06" transform="rotate(0 94.30 456.06)"></line>
    <circle cx="109.90" cy="448.53" r="1.1"></circle>
    <circle cx="130.17" cy="444.21" r="1.1"></circle>
    <circle cx="143.39" cy="456.37" r="1.1"></circle>
    <circle cx="176.35" cy="445.74" r="1.8"></circle>
    <circle cx="183.93" cy="444.84" r="1.1"></circle>
    <circle cx="214.46" cy="444.14" r="1.8"></circle>
    <circle cx="227.98" cy="443.87" r="1.1"></circle>
    <circle cx="254.97" cy="447.92" r="1.1"></circle>
    <circle cx="269.52" cy="451.72" r="1.1"></circle>
    <circle cx="290.24" cy="456.24" r="1.1"></circle>
    <circle cx="303.47" cy="455.87" r="1.1"></circle>
    <circle cx="323.57" cy="443.17" r="1.8"></circle>
    <circle cx="349.72" cy="449.18" r="1.1"></circle>
    <circle cx="371.86" cy="446.39" r="1.1"></circle>
    <circle cx="396.32" cy="446.37" r="1.1"></circle>
    <circle cx="407.76" cy="447.55" r="1.8"></circle>
    <circle cx="431.26" cy="455.90" r="1.1"></circle>
    <circle cx="446.86" cy="443.89" r="1.1"></circle>
    <line x1="462.72" y1="445.08" x2="465.52" y2="445.08" transform="rotate(0 464.12 445.08)"></line>
    <circle cx="10.36" cy="464.28" r="1.1"></circle>
    <line x1="31.62" y1="468.35" x2="34.42" y2="468.35" transform="rotate(0 33.02 468.35)"></line>
    <circle cx="49.33" cy="466.01" r="1.1"></circle>
    <circle cx="70.12" cy="464.85" r="1.1"></circle>
    <circle cx="91.80" cy="468.52" r="1.1"></circle>
    <circle cx="106.07" cy="470.75" r="1.1"></circle>
    <line x1="123.56" y1="470.41" x2="126.36" y2="470.41" transform="rotate(90 124.96 470.41)"></line>
    <circle cx="144.83" cy="467.68" r="1.1"></circle>
    <circle cx="164.01" cy="467.95" r="1.1"></circle>
    <circle cx="183.13" cy="476.14" r="1.1"></circle>
    <circle cx="216.11" cy="476.23" r="1.1"></circle>
    <circle cx="225.91" cy="468.22" r="1.1"></circle>
    <circle cx="248.94" cy="467.80" r="1.1"></circle>
    <circle cx="275.95" cy="467.25" r="1.1"></circle>
    <circle cx="287.29" cy="473.27" r="1.1"></circle>
    <circle cx="310.42" cy="469.06" r="1.1"></circle>
    <circle cx="332.08" cy="465.34" r="1.8"></circle>
    <circle cx="353.74" cy="471.36" r="1.1"></circle>
    <line x1="369.21" y1="471.91" x2="372.01" y2="471.91" transform="rotate(90 370.61 471.91)"></line>
    <circle cx="390.52" cy="468.75" r="1.1"></circle>
    <circle cx="409.04" cy="475.97" r="1.8"></circle>
    <line x1="434.27" y1="463.92" x2="437.07" y2="463.92" transform="rotate(90 435.67 463.92)"></line>
    <circle cx="454.48" cy="468.59" r="1.8"></circle>
    <circle cx="469.18" cy="466.35" r="1.8"></circle>
  </g>
</svg>